<svg width="16" height="16" viewBox="0 0 16 16" fill="none" xmlns="http://www.w3.org/2000/svg">
  <path fill-rule="evenodd" clip-rule="evenodd" d="M3.55544 1.34824C4.87103 0.469192 6.41775 0 8 0C9.05058 0 10.0909 0.206926 11.0615 0.608964C12.0321 1.011 12.914 1.60028 13.6569 2.34315C14.3997 3.08601 14.989 3.96793 15.391 4.93853C15.7931 5.90914 16 6.94942 16 8C16 9.58225 15.5308 11.129 14.6518 12.4446C13.7727 13.7602 12.5233 14.7855 11.0615 15.391C9.59966 15.9965 7.99113 16.155 6.43928 15.8463C4.88743 15.5376 3.46197 14.7757 2.34315 13.6569C1.22433 12.538 0.462403 11.1126 0.153721 9.56072C-0.15496 8.00887 0.00346629 6.40034 0.608967 4.93853C1.21447 3.47672 2.23985 2.22729 3.55544 1.34824ZM9.10937 9.05467L9.24999 4.20312C9.24999 4.14062 9.22395 4.09375 9.17187 4.0625C9.11978 4.02083 9.05729 4 8.98437 4H7.26562C7.19271 4 7.13021 4.02083 7.07812 4.0625C7.02604 4.09375 7 4.14062 7 4.20312L7.13281 9.05467C7.13281 9.10675 7.15885 9.15233 7.21094 9.19139C7.26302 9.23045 7.32552 9.24998 7.39844 9.24998H8.84374C8.91666 9.24998 8.97786 9.23045 9.02734 9.19139C9.07682 9.15233 9.10416 9.10675 9.10937 9.05467ZM9.12499 11.7422V10.2578C9.12499 10.1849 9.10156 10.1237 9.05468 10.0742C9.00781 10.0247 8.95052 10 8.88281 10H7.38281C7.3151 10 7.25521 10.026 7.20312 10.0781C7.15104 10.1302 7.125 10.1901 7.125 10.2578V11.7422C7.125 11.8099 7.15104 11.8698 7.20312 11.9219C7.25521 11.974 7.3151 12 7.38281 12H8.88281C8.95052 12 9.00781 11.9753 9.05468 11.9258C9.10156 11.8763 9.12499 11.8151 9.12499 11.7422Z" fill="#F7F9FD"/>
</svg>
